<svg id="esQJikjCexM1" xmlns="http://www.w3.org/2000/svg" xmlns:xlink="http://www.w3.org/1999/xlink" viewBox="-3.12 -3.12 30.24 30.24" shape-rendering="geometricPrecision" text-rendering="geometricPrecision" project-id="2fdbb1077dfc4a6c97d4f8292db61236" export-id="f5bd7948b9d84e0195ed4e64fce007cf" cached="false"><g transform="matrix(0.999973 0.007295 -0.007295 0.999973 0.087856 -0.087218)"><g transform="matrix(0.99996 0.00897 -0.00897 0.99996 0.10812 -0.107155)"><path d="M20.3873,7.1575L11.9999,12L3.60913,7.14978" fill="none" stroke="#fff" stroke-width="2.4" stroke-linecap="round" stroke-linejoin="round"/><path d="M12,12v9" fill="none" stroke="#fff" stroke-width="2.4" stroke-linecap="round" stroke-linejoin="round"/><path d="M11,2.57735c.6188-.35727,1.3812-.35727,2,0l6.6603,3.8453c.6188.35727,1,1.01752,1,1.73205v7.6906c0,.7145-.3812,1.3748-1,1.7321L13,21.4226c-.6188.3573-1.3812.3573-2,0L4.33975,17.5774c-.61881-.3573-1-1.0176-1-1.7321v-7.6906c0-.71453.38119-1.37478,1-1.73205L11,2.57735Z" fill="none" stroke="#fff" stroke-width="2.4" stroke-linecap="round" stroke-linejoin="round"/></g><path d="M4.575167,8.513462L11.38766,12.79076l-.773634,6.95066-7.109121-4.254882L4.575167,8.513462Z" transform="translate(0.000002 0)" fill="#fff" stroke="#fff" stroke-width="0.5"/></g><path d="" fill="none" stroke="#3f5787" stroke-width="0.5"/></svg>
